<svg width="24" height="25" viewBox="0 0 24 25" fill="none" xmlns="http://www.w3.org/2000/svg">
<path d="M18.9998 17.9199V6.91992C19.0627 5.79358 18.6774 4.68812 17.9279 3.84497C17.1784 3.00182 16.1258 2.4895 14.9998 2.41992H8.99981C7.87387 2.4895 6.82121 3.00182 6.07175 3.84497C5.32228 4.68812 4.9369 5.79358 4.99982 6.91992V17.9199C4.9369 19.0463 5.32228 20.1516 6.07175 20.9948C6.82121 21.8379 7.87387 22.3502 8.99981 22.4198H14.9998C16.1258 22.3502 17.1784 21.8379 17.9279 20.9948C18.6774 20.1516 19.0627 19.0463 18.9998 17.9199V17.9199Z" stroke="black" stroke-width="1.5" stroke-linecap="round" stroke-linejoin="round"/>
<path d="M14 5.41992H10" stroke="black" stroke-width="1.5" stroke-linecap="round" stroke-linejoin="round"/>
</svg>
